<svg fill="none" height="16" viewBox="0 0 16 16" width="16" xmlns="http://www.w3.org/2000/svg"><g fill="#FFFFFF"><path d="m12.4786 1.77141c-.9547-.954652-2.50249-.954655-3.45714 0l-6.625 6.625c-.05489.05489-.09624.1218-.12079.19544l-1.25 3.75005c-.05771.1731-.01651.3639.10748.4978s.31109.1896.48813.1453l4-1c.08791-.0219.1682-.0674.23228-.1315l5.64644-5.64641.0858.0858c.3905.39053.3905 1.02369 0 1.41422l-1.4394 1.43934c-.19522.19526-.19522.51184 0 .7071.1953.19525.5119.19525.7072 0l1.4393-1.43934c.781-.78105.781-2.04738 0-2.82842l-.0858-.0858.2715-.27147c.9546-.95466.9546-2.50246 0-3.45711z"/><path d="m4.96666 14.9999c-1.23504 0-2.20749-.5665-2.85493-1.1067l1.28469-.3212c.44532.2496.97277.4279 1.57024.4279.40539 0 .82339-.164 1.26919-.4569.44675-.2936.87822-.687 1.31385-1.0954l.11343-.1065c.38439-.3613.78407-.737 1.16615-.9968.40805-.2775.94882-.5295 1.51692-.311.3753.1444.619.4109.7909.7368.1612.3053.2722.6881.3802 1.1042.0494.1902.1331.374.229.4983.0467.0606.087.0949.1151.1122.0247.0152.0357.0152.0385.0152.1219 0 .3311-.0825.63-.2859.1854-.1262.3437-.2525.5022-.3789.0983-.0784.1967-.157.3017-.2355.2789-.2088.5206-.3488.6976-.4383.0884-.0448.1608-.077.2136-.0988.0264-.0109.0479-.0192.0641-.0253l.0203-.0073.0071-.0025.0027-.0009.0012-.0004c.0001-.0001.001-.0004.1596.4738l-.1586-.4742c.2619-.0876.5452.0537.6328.3156.0872.2608-.0525.5427-.3122.6316l-.0039.0015c-.0054.002-.0159.006-.0311.0123-.0304.0125-.0795.0341-.1442.0669-.1294.0654-.3211.1754-.5499.3466-.0586.0438-.1352.1046-.2226.1739-.1813.1439-.4091.3246-.6178.4666-.3109.2116-.7415.4592-1.1925.4592-.4356 0-.7512-.2647-.9455-.5166-.1983-.257-.3313-.5732-.4051-.8578-.1097-.4225-.1966-.6992-.2967-.8889-.0893-.1692-.17-.2333-.26555-.2701-.08192-.0315-.24532-.0335-.5956.2046-.31303.2129-.6542.5331-1.05802.9122l-.0999.0938c-.43103.4041-.9204.8544-1.44866 1.2015-.5292.3477-1.14036.6212-1.81831.6212z"/></g></svg>